<svg width="1440" height="3459" viewBox="0 0 1440 3459" fill="none" xmlns="http://www.w3.org/2000/svg">
<path fill-rule="evenodd" clip-rule="evenodd" d="M959.353 1663.64C1189.1 1318.28 1236.45 587.865 1220.5 300.066C1225.76 137.254 1315.13 0 1315.13 0C1315.13 156.546 1266.34 1163.25 1141.5 1549.07C1022.96 1915.4 884.707 2005.92 599 2106.57C289.153 2215.72 107.5 2385.57 -144 2785.57C-85.1151 2609.1 83.0853 2231.61 284.807 2133.33C352.364 2100.42 411.526 2082.41 467.466 2065.39C620.318 2018.87 749.109 1979.68 959.353 1663.64ZM1534.93 769.085C1526.79 1042.8 1446.07 1666.88 1188.31 1973.45C952.425 2253.99 820.825 2279.75 664.638 2310.32C607.478 2321.51 547.025 2333.34 476.963 2358.54C267.759 2433.79 -268.607 2916.63 -342.018 3078.41C-269.092 2957.67 415.195 2486.17 733.043 2410.14C1026.13 2340.04 1266.45 2232.11 1415.15 1895.92C1571.77 1541.84 1772.04 552.901 1681.75 430.609C1609.52 332.776 1553.77 615.496 1534.93 769.085ZM1788.05 1258.04C1744.9 1543.04 1584.75 2185.82 1289.32 2476.99C1018.98 2743.44 884.897 2755.51 725.768 2769.83C667.531 2775.07 605.939 2780.62 533.085 2799.04C315.545 2854.06 -279.324 3297.94 -373 3458.66C-285.063 3340.76 455.355 2925.4 780.961 2881.81C1081.2 2841.62 1333.85 2755.98 1524.69 2421.57C1725.68 2069.38 2051.37 1058.96 1977.3 921.039C1918.05 810.705 1826.45 1099.74 1788.05 1258.04ZM-108.474 1028.13C8.19296 884.726 414.051 445.394 414.051 445.394C414.051 445.394 -398.183 942.938 -379.245 1068.08C-364.095 1168.2 -184.739 1099.32 -108.474 1028.13Z" fill="#BCBCBC"/>
</svg>
