<svg width="1440" height="1484" viewBox="0 0 1440 1484" fill="none" xmlns="http://www.w3.org/2000/svg">
<path fill-rule="evenodd" clip-rule="evenodd" d="M1705.32 189.707C1640.57 362.865 1435.46 734.386 1133.02 835.205C856.263 927.464 729.194 894.759 578.385 855.944C523.193 841.739 464.822 826.716 394.77 816.7C238.537 794.361 -133.995 850.045 -354.935 911.605C-523.457 881.437 -677.294 867.004 -733 882.94C-696.447 878.125 -587.242 901.673 -449.362 941.888C-477.774 952.704 -499.652 963.339 -513 973.4C-498.056 965.27 -466.508 957.222 -422.799 949.736C-168.652 1025.76 169.194 1153.28 335.064 1264.29C578.465 1427.18 799.548 1534.22 1051.19 1458.81C1316.22 1379.39 1883.67 995.939 1870.02 870.108C1859.11 769.443 1697.98 880.095 1618.78 948.004C1496.18 1086.37 1171.35 1359.47 852.88 1344.97C561.449 1331.71 454.597 1255.56 327.781 1165.18C281.37 1132.11 232.285 1097.13 170.501 1062.63C85.2769 1015.04 -87.8859 965.597 -261.624 929.623C5.51556 904.74 410.36 898.216 620.766 945.824C906.422 1010.46 1151.2 1030.98 1358.99 870.25C1577.83 700.967 1969.76 139.337 1911.84 26.797C1865.5 -63.2348 1754.85 97.8905 1705.32 189.707Z" fill="#BCBCBC"/>
</svg>
