<svg xmlns="http://www.w3.org/2000/svg" width="101" height="32" viewBox="0 0 101 32" fill="none">
  <path d="M98.7012 13.976L100.8 12.0016V5.99769L94.4972 0H73.5028L67.2 5.99769V1.99924L65.1012 1.23874e-05H56.6996L54.6008 1.99924V5.99769L50.4033 10.0023L46.2057 5.99769V1.99924L44.1004 1.23874e-05H35.6988L33.6 1.99924L31.5012 1.23874e-05H23.0996L21.0008 1.99924V10.0023L10.5004 0H2.0988L0 1.99922V30.0008L2.0988 32H10.5004L12.6057 30.0008V22.0039L23.0996 32H31.5012L33.6 30.0008V14.0008L44.1004 24.0031V30.0008L46.2057 32H54.6008L56.6996 30.0008V24.0031L67.2 14.0008V26.0023L73.5028 32H94.4972L100.8 26.0023V20.0046L98.7012 17.9992H88.1943V20.0046H79.7992V12.0016H88.1943V13.976H98.7012Z" fill="white"/>
</svg>